<?xml version="1.0" encoding="UTF-8"?>
<svg width="128" height="128" viewBox="0 0 128 128" xmlns="http://www.w3.org/2000/svg">
  <rect width="128" height="128" rx="24" fill="#42a5f5"/>
  <path d="M64 32C45.2 32 30 47.2 30 66C30 84.8 45.2 100 64 100C82.8 100 98 84.8 98 66C98 47.2 82.8 32 64 32ZM64 92C50.7 92 40 81.3 40 68C40 54.7 50.7 44 64 44C77.3 44 88 54.7 88 68C88 81.3 77.3 92 64 92Z" fill="white"/>
  <path d="M64 52C58.5 52 54 56.5 54 62V66C54 71.5 58.5 76 64 76C69.5 76 74 71.5 74 66V62C74 56.5 69.5 52 64 52Z" fill="white"/>
</svg> 